<svg xmlns="http://www.w3.org/2000/svg" xmlns:xlink="http://www.w3.org/1999/xlink" width="221" zoomAndPan="magnify" viewBox="0 0 165.75 165.750002" height="221" preserveAspectRatio="xMidYMid meet" version="1.0"><defs><clipPath id="f0f3620e78"><path d="M 0 0 L 165.5 0 L 165.5 165.5 L 0 165.5 Z M 0 0 " clip-rule="nonzero"/></clipPath><clipPath id="bc78501bd6"><path d="M 0 0 L 165.488281 0 L 165.488281 165.488281 L 0 165.488281 Z M 0 0 " clip-rule="nonzero"/></clipPath><clipPath id="8c5a173868"><rect x="0" width="166" y="0" height="166"/></clipPath></defs><g clip-path="url(#f0f3620e78)"><path fill="#ffffff" d="M 0 0 L 165.5 0 L 165.5 165.5 L 0 165.5 Z M 0 0 " fill-opacity="1" fill-rule="nonzero"/><g transform="matrix(1, 0, 0, 1, 0, -0.000000000000002411)"><g clip-path="url(#8c5a173868)"><g clip-path="url(#bc78501bd6)"><path fill="#ffffff" d="M 0 0 L 165.488281 0 L 165.488281 165.488281 L 0 165.488281 Z M 0 0 " fill-opacity="1" fill-rule="nonzero"/></g><path stroke-linecap="butt" transform="matrix(3.677489, 0, 0, 3.677489, -0.000000000000042568, 0.0000109849)" fill-opacity="1" fill="#ffffff" fill-rule="nonzero" stroke-linejoin="miter" d="M 2.000133 2.500429 L 9.000069 2.500429 M 9.999605 2.500429 L 11.000202 2.500429 M 13.000336 2.500429 L 15.000469 2.500429 M 16.000005 2.500429 L 22.000405 2.500429 M 22.99994 2.500429 L 23.999476 2.500429 M 25.999609 2.500429 L 27.000207 2.500429 M 29.999876 2.500429 L 31.000474 2.500429 M 32.000009 2.500429 L 34.999678 2.500429 M 36.000276 2.500429 L 43.000212 2.500429 M 2.000133 3.499965 L 2.999669 3.499965 M 7.999471 3.499965 L 9.000069 3.499965 M 9.999605 3.499965 L 11.999738 3.499965 M 13.000336 3.499965 L 13.999871 3.499965 M 18.000138 3.499965 L 18.999674 3.499965 M 20.000271 3.499965 L 23.999476 3.499965 M 25.000074 3.499965 L 27.000207 3.499965 M 31.000474 3.499965 L 32.999545 3.499965 M 34.000143 3.499965 L 34.999678 3.499965 M 36.000276 3.499965 L 36.999812 3.499965 M 41.999614 3.499965 L 43.000212 3.499965 M 2.000133 4.4995 L 2.999669 4.4995 M 4.000267 4.4995 L 6.999936 4.4995 M 7.999471 4.4995 L 9.000069 4.4995 M 13.999871 4.4995 L 15.000469 4.4995 M 16.99954 4.4995 L 18.000138 4.4995 M 18.999674 4.4995 L 20.000271 4.4995 M 20.999807 4.4995 L 22.000405 4.4995 M 22.99994 4.4995 L 23.999476 4.4995 M 25.000074 4.4995 L 27.000207 4.4995 M 27.999743 4.4995 L 29.000341 4.4995 M 29.999876 4.4995 L 32.000009 4.4995 M 32.999545 4.4995 L 34.999678 4.4995 M 36.000276 4.4995 L 36.999812 4.4995 M 38.00041 4.4995 L 41.000079 4.4995 M 41.999614 4.4995 L 43.000212 4.4995 M 2.000133 5.500098 L 2.999669 5.500098 M 4.000267 5.500098 L 6.999936 5.500098 M 7.999471 5.500098 L 9.000069 5.500098 M 9.999605 5.500098 L 13.999871 5.500098 M 18.000138 5.500098 L 18.999674 5.500098 M 25.000074 5.500098 L 27.000207 5.500098 M 29.999876 5.500098 L 31.000474 5.500098 M 32.999545 5.500098 L 34.000143 5.500098 M 36.000276 5.500098 L 36.999812 5.500098 M 38.00041 5.500098 L 41.000079 5.500098 M 41.999614 5.500098 L 43.000212 5.500098 M 2.000133 6.499634 L 2.999669 6.499634 M 4.000267 6.499634 L 6.999936 6.499634 M 7.999471 6.499634 L 9.000069 6.499634 M 11.999738 6.499634 L 13.999871 6.499634 M 15.000469 6.499634 L 18.000138 6.499634 M 18.999674 6.499634 L 20.000271 6.499634 M 20.999807 6.499634 L 22.000405 6.499634 M 25.999609 6.499634 L 27.000207 6.499634 M 27.999743 6.499634 L 32.000009 6.499634 M 32.999545 6.499634 L 34.000143 6.499634 M 36.000276 6.499634 L 36.999812 6.499634 M 38.00041 6.499634 L 41.000079 6.499634 M 41.999614 6.499634 L 43.000212 6.499634 M 2.000133 7.500232 L 2.999669 7.500232 M 7.999471 7.500232 L 9.000069 7.500232 M 13.999871 7.500232 L 18.000138 7.500232 M 20.000271 7.500232 L 22.000405 7.500232 M 22.99994 7.500232 L 25.000074 7.500232 M 25.999609 7.500232 L 29.000341 7.500232 M 32.000009 7.500232 L 34.000143 7.500232 M 36.000276 7.500232 L 36.999812 7.500232 M 41.999614 7.500232 L 43.000212 7.500232 M 2.000133 8.499767 L 9.000069 8.499767 M 9.999605 8.499767 L 11.000202 8.499767 M 11.999738 8.499767 L 13.000336 8.499767 M 13.999871 8.499767 L 15.000469 8.499767 M 16.000005 8.499767 L 16.99954 8.499767 M 18.000138 8.499767 L 18.999674 8.499767 M 20.000271 8.499767 L 20.999807 8.499767 M 22.000405 8.499767 L 22.99994 8.499767 M 23.999476 8.499767 L 25.000074 8.499767 M 25.999609 8.499767 L 27.000207 8.499767 M 27.999743 8.499767 L 29.000341 8.499767 M 29.999876 8.499767 L 31.000474 8.499767 M 32.000009 8.499767 L 32.999545 8.499767 M 34.000143 8.499767 L 34.999678 8.499767 M 36.000276 8.499767 L 43.000212 8.499767 M 9.999605 9.500365 L 13.000336 9.500365 M 13.999871 9.500365 L 20.000271 9.500365 M 20.999807 9.500365 L 22.99994 9.500365 M 23.999476 9.500365 L 27.000207 9.500365 M 27.999743 9.500365 L 32.999545 9.500365 M 34.000143 9.500365 L 34.999678 9.500365 M 2.000133 10.499901 L 2.999669 10.499901 M 4.000267 10.499901 L 6.0004 10.499901 M 6.999936 10.499901 L 9.999605 10.499901 M 11.000202 10.499901 L 11.999738 10.499901 M 13.000336 10.499901 L 13.999871 10.499901 M 18.000138 10.499901 L 23.999476 10.499901 M 27.999743 10.499901 L 34.000143 10.499901 M 36.000276 10.499901 L 36.999812 10.499901 M 38.999945 10.499901 L 39.999481 10.499901 M 41.000079 10.499901 L 43.000212 10.499901 M 2.000133 11.500498 L 4.999802 11.500498 M 6.0004 11.500498 L 7.999471 11.500498 M 9.999605 11.500498 L 11.999738 11.500498 M 13.000336 11.500498 L 15.000469 11.500498 M 16.99954 11.500498 L 20.000271 11.500498 M 20.999807 11.500498 L 23.999476 11.500498 M 25.000074 11.500498 L 25.999609 11.500498 M 29.999876 11.500498 L 32.000009 11.500498 M 32.999545 11.500498 L 38.999945 11.500498 M 39.999481 11.500498 L 41.000079 11.500498 M 4.000267 12.500034 L 4.999802 12.500034 M 7.999471 12.500034 L 9.000069 12.500034 M 9.999605 12.500034 L 11.000202 12.500034 M 13.999871 12.500034 L 16.99954 12.500034 M 20.000271 12.500034 L 20.999807 12.500034 M 22.000405 12.500034 L 23.999476 12.500034 M 25.000074 12.500034 L 27.000207 12.500034 M 27.999743 12.500034 L 29.000341 12.500034 M 31.000474 12.500034 L 32.000009 12.500034 M 34.999678 12.500034 L 36.000276 12.500034 M 38.00041 12.500034 L 38.999945 12.500034 M 39.999481 12.500034 L 41.000079 12.500034 M 41.999614 12.500034 L 43.000212 12.500034 M 2.999669 13.499569 L 7.999471 13.499569 M 9.999605 13.499569 L 11.999738 13.499569 M 13.000336 13.499569 L 15.000469 13.499569 M 16.000005 13.499569 L 16.99954 13.499569 M 18.000138 13.499569 L 18.999674 13.499569 M 20.000271 13.499569 L 20.999807 13.499569 M 22.000405 13.499569 L 22.99994 13.499569 M 27.000207 13.499569 L 27.999743 13.499569 M 29.000341 13.499569 L 29.999876 13.499569 M 32.000009 13.499569 L 32.999545 13.499569 M 34.000143 13.499569 L 38.999945 13.499569 M 41.000079 13.499569 L 43.000212 13.499569 M 2.999669 14.500167 L 6.0004 14.500167 M 7.999471 14.500167 L 9.000069 14.500167 M 13.000336 14.500167 L 16.000005 14.500167 M 16.99954 14.500167 L 18.000138 14.500167 M 18.999674 14.500167 L 20.000271 14.500167 M 20.999807 14.500167 L 22.99994 14.500167 M 23.999476 14.500167 L 25.000074 14.500167 M 25.999609 14.500167 L 29.000341 14.500167 M 31.000474 14.500167 L 32.000009 14.500167 M 32.999545 14.500167 L 38.00041 14.500167 M 38.999945 14.500167 L 41.000079 14.500167 M 2.000133 15.499703 L 4.000267 15.499703 M 4.999802 15.499703 L 6.0004 15.499703 M 9.999605 15.499703 L 13.999871 15.499703 M 15.000469 15.499703 L 16.99954 15.499703 M 18.000138 15.499703 L 20.000271 15.499703 M 22.000405 15.499703 L 22.99994 15.499703 M 23.999476 15.499703 L 27.000207 15.499703 M 29.999876 15.499703 L 36.000276 15.499703 M 38.999945 15.499703 L 41.000079 15.499703 M 41.999614 15.499703 L 43.000212 15.499703 M 2.000133 16.500301 L 6.0004 16.500301 M 7.999471 16.500301 L 9.000069 16.500301 M 11.000202 16.500301 L 16.000005 16.500301 M 18.000138 16.500301 L 18.999674 16.500301 M 20.999807 16.500301 L 22.99994 16.500301 M 23.999476 16.500301 L 25.000074 16.500301 M 27.000207 16.500301 L 31.000474 16.500301 M 32.000009 16.500301 L 32.999545 16.500301 M 36.000276 16.500301 L 38.00041 16.500301 M 41.000079 16.500301 L 43.000212 16.500301 M 2.000133 17.499836 L 2.999669 17.499836 M 4.000267 17.499836 L 7.999471 17.499836 M 9.999605 17.499836 L 11.000202 17.499836 M 13.000336 17.499836 L 18.000138 17.499836 M 22.99994 17.499836 L 23.999476 17.499836 M 25.999609 17.499836 L 27.000207 17.499836 M 29.000341 17.499836 L 29.999876 17.499836 M 32.000009 17.499836 L 32.999545 17.499836 M 34.000143 17.499836 L 34.999678 17.499836 M 36.000276 17.499836 L 36.999812 17.499836 M 38.00041 17.499836 L 39.999481 17.499836 M 2.999669 18.500434 L 6.999936 18.500434 M 7.999471 18.500434 L 9.000069 18.500434 M 11.000202 18.500434 L 13.999871 18.500434 M 15.000469 18.500434 L 16.000005 18.500434 M 18.999674 18.500434 L 20.000271 18.500434 M 25.000074 18.500434 L 25.999609 18.500434 M 27.000207 18.500434 L 27.999743 18.500434 M 29.999876 18.500434 L 31.000474 18.500434 M 32.000009 18.500434 L 34.999678 18.500434 M 38.00041 18.500434 L 38.999945 18.500434 M 41.000079 18.500434 L 43.000212 18.500434 M 2.000133 19.49997 L 4.999802 19.49997 M 6.0004 19.49997 L 7.999471 19.49997 M 9.000069 19.49997 L 11.000202 19.49997 M 11.999738 19.49997 L 13.000336 19.49997 M 13.999871 19.49997 L 15.000469 19.49997 M 18.000138 19.49997 L 18.999674 19.49997 M 20.000271 19.49997 L 22.000405 19.49997 M 29.000341 19.49997 L 31.000474 19.49997 M 32.000009 19.49997 L 32.999545 19.49997 M 34.000143 19.49997 L 36.000276 19.49997 M 36.999812 19.49997 L 38.00041 19.49997 M 38.999945 19.49997 L 39.999481 19.49997 M 2.999669 20.499505 L 4.000267 20.499505 M 6.0004 20.499505 L 6.999936 20.499505 M 7.999471 20.499505 L 9.000069 20.499505 M 11.000202 20.499505 L 13.000336 20.499505 M 13.999871 20.499505 L 15.000469 20.499505 M 16.000005 20.499505 L 18.000138 20.499505 M 20.000271 20.499505 L 20.999807 20.499505 M 22.99994 20.499505 L 27.000207 20.499505 M 29.000341 20.499505 L 31.000474 20.499505 M 34.000143 20.499505 L 36.000276 20.499505 M 38.00041 20.499505 L 39.999481 20.499505 M 2.999669 21.500103 L 4.000267 21.500103 M 4.999802 21.500103 L 6.0004 21.500103 M 6.999936 21.500103 L 7.999471 21.500103 M 13.000336 21.500103 L 15.000469 21.500103 M 16.99954 21.500103 L 18.000138 21.500103 M 18.999674 21.500103 L 20.999807 21.500103 M 22.000405 21.500103 L 23.999476 21.500103 M 25.000074 21.500103 L 25.999609 21.500103 M 27.000207 21.500103 L 27.999743 21.500103 M 32.000009 21.500103 L 32.999545 21.500103 M 34.000143 21.500103 L 34.999678 21.500103 M 36.000276 21.500103 L 38.00041 21.500103 M 38.999945 21.500103 L 41.000079 21.500103 M 2.000133 22.499639 L 4.999802 22.499639 M 6.0004 22.499639 L 13.999871 22.499639 M 16.000005 22.499639 L 16.99954 22.499639 M 18.000138 22.499639 L 18.999674 22.499639 M 20.999807 22.499639 L 22.99994 22.499639 M 23.999476 22.499639 L 25.999609 22.499639 M 27.000207 22.499639 L 27.999743 22.499639 M 29.999876 22.499639 L 31.000474 22.499639 M 34.000143 22.499639 L 36.999812 22.499639 M 39.999481 22.499639 L 41.999614 22.499639 M 2.999669 23.500236 L 4.000267 23.500236 M 9.000069 23.500236 L 11.000202 23.500236 M 13.000336 23.500236 L 15.000469 23.500236 M 18.000138 23.500236 L 18.999674 23.500236 M 20.999807 23.500236 L 23.999476 23.500236 M 25.000074 23.500236 L 25.999609 23.500236 M 27.999743 23.500236 L 29.000341 23.500236 M 31.000474 23.500236 L 36.999812 23.500236 M 41.000079 23.500236 L 43.000212 23.500236 M 4.000267 24.499772 L 4.999802 24.499772 M 6.0004 24.499772 L 6.999936 24.499772 M 7.999471 24.499772 L 9.999605 24.499772 M 11.000202 24.499772 L 11.999738 24.499772 M 13.000336 24.499772 L 13.999871 24.499772 M 16.000005 24.499772 L 18.999674 24.499772 M 22.99994 24.499772 L 23.999476 24.499772 M 25.000074 24.499772 L 25.999609 24.499772 M 29.999876 24.499772 L 32.000009 24.499772 M 38.999945 24.499772 L 41.999614 24.499772 M 2.000133 25.50037 L 6.999936 25.50037 M 9.000069 25.50037 L 9.999605 25.50037 M 11.000202 25.50037 L 13.999871 25.50037 M 15.000469 25.50037 L 16.99954 25.50037 M 20.000271 25.50037 L 20.999807 25.50037 M 22.000405 25.50037 L 22.99994 25.50037 M 25.000074 25.50037 L 25.999609 25.50037 M 27.000207 25.50037 L 31.000474 25.50037 M 34.000143 25.50037 L 34.999678 25.50037 M 36.999812 25.50037 L 38.00041 25.50037 M 38.999945 25.50037 L 43.000212 25.50037 M 4.000267 26.499905 L 4.999802 26.499905 M 6.0004 26.499905 L 6.999936 26.499905 M 7.999471 26.499905 L 9.000069 26.499905 M 11.999738 26.499905 L 13.000336 26.499905 M 13.999871 26.499905 L 15.000469 26.499905 M 16.99954 26.499905 L 22.000405 26.499905 M 23.999476 26.499905 L 29.999876 26.499905 M 31.000474 26.499905 L 32.000009 26.499905 M 32.999545 26.499905 L 34.000143 26.499905 M 2.000133 27.500503 L 6.0004 27.500503 M 9.000069 27.500503 L 11.000202 27.500503 M 11.999738 27.500503 L 13.000336 27.500503 M 15.000469 27.500503 L 16.000005 27.500503 M 16.99954 27.500503 L 18.000138 27.500503 M 20.999807 27.500503 L 22.000405 27.500503 M 25.999609 27.500503 L 27.000207 27.500503 M 29.000341 27.500503 L 29.999876 27.500503 M 31.000474 27.500503 L 38.00041 27.500503 M 38.999945 27.500503 L 41.000079 27.500503 M 2.000133 28.500039 L 4.000267 28.500039 M 4.999802 28.500039 L 6.999936 28.500039 M 7.999471 28.500039 L 9.999605 28.500039 M 11.000202 28.500039 L 13.000336 28.500039 M 13.999871 28.500039 L 16.000005 28.500039 M 16.99954 28.500039 L 18.000138 28.500039 M 18.999674 28.500039 L 22.99994 28.500039 M 25.999609 28.500039 L 27.000207 28.500039 M 31.000474 28.500039 L 32.000009 28.500039 M 32.999545 28.500039 L 38.00041 28.500039 M 38.999945 28.500039 L 39.999481 28.500039 M 2.000133 29.499574 L 4.000267 29.499574 M 4.999802 29.499574 L 6.999936 29.499574 M 9.999605 29.499574 L 11.999738 29.499574 M 16.000005 29.499574 L 16.99954 29.499574 M 18.000138 29.499574 L 18.999674 29.499574 M 22.000405 29.499574 L 23.999476 29.499574 M 25.000074 29.499574 L 25.999609 29.499574 M 29.999876 29.499574 L 31.000474 29.499574 M 32.000009 29.499574 L 36.000276 29.499574 M 36.999812 29.499574 L 39.999481 29.499574 M 2.999669 30.500172 L 4.000267 30.500172 M 6.0004 30.500172 L 9.999605 30.500172 M 13.999871 30.500172 L 16.000005 30.500172 M 16.99954 30.500172 L 18.999674 30.500172 M 20.000271 30.500172 L 20.999807 30.500172 M 22.000405 30.500172 L 25.000074 30.500172 M 27.000207 30.500172 L 27.999743 30.500172 M 29.000341 30.500172 L 29.999876 30.500172 M 32.000009 30.500172 L 39.999481 30.500172 M 41.000079 30.500172 L 41.999614 30.500172 M 2.999669 31.499708 L 7.999471 31.499708 M 9.999605 31.499708 L 11.999738 31.499708 M 13.999871 31.499708 L 16.99954 31.499708 M 20.999807 31.499708 L 23.999476 31.499708 M 25.999609 31.499708 L 27.999743 31.499708 M 32.999545 31.499708 L 38.00041 31.499708 M 39.999481 31.499708 L 41.000079 31.499708 M 2.000133 32.500305 L 2.999669 32.500305 M 4.000267 32.500305 L 4.999802 32.500305 M 6.999936 32.500305 L 9.999605 32.500305 M 16.000005 32.500305 L 18.000138 32.500305 M 20.000271 32.500305 L 22.000405 32.500305 M 22.99994 32.500305 L 25.000074 32.500305 M 25.999609 32.500305 L 27.000207 32.500305 M 27.999743 32.500305 L 29.000341 32.500305 M 31.000474 32.500305 L 34.000143 32.500305 M 34.999678 32.500305 L 36.999812 32.500305 M 38.999945 32.500305 L 41.000079 32.500305 M 4.000267 33.499841 L 6.0004 33.499841 M 9.000069 33.499841 L 9.999605 33.499841 M 13.000336 33.499841 L 13.999871 33.499841 M 15.000469 33.499841 L 16.99954 33.499841 M 18.000138 33.499841 L 20.000271 33.499841 M 20.999807 33.499841 L 22.000405 33.499841 M 22.99994 33.499841 L 23.999476 33.499841 M 25.000074 33.499841 L 25.999609 33.499841 M 27.999743 33.499841 L 29.000341 33.499841 M 31.000474 33.499841 L 32.999545 33.499841 M 34.000143 33.499841 L 34.999678 33.499841 M 36.000276 33.499841 L 36.999812 33.499841 M 38.00041 33.499841 L 41.999614 33.499841 M 2.999669 34.500439 L 4.999802 34.500439 M 7.999471 34.500439 L 9.000069 34.500439 M 9.999605 34.500439 L 13.000336 34.500439 M 13.999871 34.500439 L 15.000469 34.500439 M 16.000005 34.500439 L 16.99954 34.500439 M 20.000271 34.500439 L 20.999807 34.500439 M 22.000405 34.500439 L 22.99994 34.500439 M 25.000074 34.500439 L 27.000207 34.500439 M 31.000474 34.500439 L 32.000009 34.500439 M 34.000143 34.500439 L 41.999614 34.500439 M 9.999605 35.499974 L 11.999738 35.499974 M 13.000336 35.499974 L 15.000469 35.499974 M 16.000005 35.499974 L 16.99954 35.499974 M 18.000138 35.499974 L 22.000405 35.499974 M 22.99994 35.499974 L 25.000074 35.499974 M 31.000474 35.499974 L 32.999545 35.499974 M 34.000143 35.499974 L 34.999678 35.499974 M 38.00041 35.499974 L 39.999481 35.499974 M 41.000079 35.499974 L 43.000212 35.499974 M 2.000133 36.49951 L 9.000069 36.49951 M 9.999605 36.49951 L 11.999738 36.49951 M 15.000469 36.49951 L 16.000005 36.49951 M 18.000138 36.49951 L 18.999674 36.49951 M 20.000271 36.49951 L 20.999807 36.49951 M 22.000405 36.49951 L 22.99994 36.49951 M 25.000074 36.49951 L 25.999609 36.49951 M 27.999743 36.49951 L 29.000341 36.49951 M 29.999876 36.49951 L 34.999678 36.49951 M 36.000276 36.49951 L 36.999812 36.49951 M 38.00041 36.49951 L 38.999945 36.49951 M 39.999481 36.49951 L 41.999614 36.49951 M 2.000133 37.500108 L 2.999669 37.500108 M 7.999471 37.500108 L 9.000069 37.500108 M 9.999605 37.500108 L 11.000202 37.500108 M 15.000469 37.500108 L 16.99954 37.500108 M 18.999674 37.500108 L 20.000271 37.500108 M 20.999807 37.500108 L 22.000405 37.500108 M 23.999476 37.500108 L 25.000074 37.500108 M 27.999743 37.500108 L 29.999876 37.500108 M 31.000474 37.500108 L 32.999545 37.500108 M 34.000143 37.500108 L 34.999678 37.500108 M 38.00041 37.500108 L 38.999945 37.500108 M 41.000079 37.500108 L 41.999614 37.500108 M 2.000133 38.499643 L 2.999669 38.499643 M 4.000267 38.499643 L 6.999936 38.499643 M 7.999471 38.499643 L 9.000069 38.499643 M 11.000202 38.499643 L 11.999738 38.499643 M 13.999871 38.499643 L 15.000469 38.499643 M 16.000005 38.499643 L 16.99954 38.499643 M 20.999807 38.499643 L 22.000405 38.499643 M 22.99994 38.499643 L 23.999476 38.499643 M 25.999609 38.499643 L 27.000207 38.499643 M 29.999876 38.499643 L 31.000474 38.499643 M 32.000009 38.499643 L 32.999545 38.499643 M 34.000143 38.499643 L 38.999945 38.499643 M 39.999481 38.499643 L 41.000079 38.499643 M 41.999614 38.499643 L 43.000212 38.499643 M 2.000133 39.500241 L 2.999669 39.500241 M 4.000267 39.500241 L 6.999936 39.500241 M 7.999471 39.500241 L 9.000069 39.500241 M 9.999605 39.500241 L 11.000202 39.500241 M 13.000336 39.500241 L 13.999871 39.500241 M 16.99954 39.500241 L 18.999674 39.500241 M 20.999807 39.500241 L 23.999476 39.500241 M 25.999609 39.500241 L 27.000207 39.500241 M 29.000341 39.500241 L 34.999678 39.500241 M 38.00041 39.500241 L 39.999481 39.500241 M 2.000133 40.499777 L 2.999669 40.499777 M 4.000267 40.499777 L 6.999936 40.499777 M 7.999471 40.499777 L 9.000069 40.499777 M 9.999605 40.499777 L 15.000469 40.499777 M 16.000005 40.499777 L 20.000271 40.499777 M 20.999807 40.499777 L 23.999476 40.499777 M 25.999609 40.499777 L 27.000207 40.499777 M 27.999743 40.499777 L 29.000341 40.499777 M 36.999812 40.499777 L 38.00041 40.499777 M 38.999945 40.499777 L 39.999481 40.499777 M 41.000079 40.499777 L 43.000212 40.499777 M 2.000133 41.500374 L 2.999669 41.500374 M 7.999471 41.500374 L 9.000069 41.500374 M 16.99954 41.500374 L 22.000405 41.500374 M 22.99994 41.500374 L 25.999609 41.500374 M 29.000341 41.500374 L 31.000474 41.500374 M 32.000009 41.500374 L 32.999545 41.500374 M 34.000143 41.500374 L 34.999678 41.500374 M 38.00041 41.500374 L 38.999945 41.500374 M 39.999481 41.500374 L 41.999614 41.500374 M 2.000133 42.49991 L 9.000069 42.49991 M 9.999605 42.49991 L 11.999738 42.49991 M 13.000336 42.49991 L 13.999871 42.49991 M 15.000469 42.49991 L 18.000138 42.49991 M 20.000271 42.49991 L 20.999807 42.49991 M 22.99994 42.49991 L 25.000074 42.49991 M 27.000207 42.49991 L 29.000341 42.49991 M 32.000009 42.49991 L 34.999678 42.49991 M 38.999945 42.49991 L 39.999481 42.49991 M 41.000079 42.49991 L 41.999614 42.49991 " stroke="#000000" stroke-width="1" stroke-opacity="1" stroke-miterlimit="4"/></g></g></g></svg>